<svg width="1080" height="1080" viewBox="0 0 1080 1080" fill="none" xmlns="http://www.w3.org/2000/svg">
<g clip-path="url(#clip0)">
<rect width="1080" height="1080" fill="white"/>
<circle cx="537.5" cy="546.5" r="352.5" fill="#F3DC94"/>
<circle cx="367.5" cy="294.5" r="118.5" fill="#ED8E68"/>
<mask id="mask0" mask-type="alpha" maskUnits="userSpaceOnUse" x="185" y="194" width="705" height="705">
<circle cx="537.5" cy="546.5" r="352.5" fill="#96C5FA"/>
</mask>
<g mask="url(#mask0)">
<path d="M431 596.5L480 597.5C461.5 620.5 423.5 638 377.5 637C331.5 636 279 634 261 628.5C243 623 245 625.5 241 624.5C237 623.5 228.5 626 228.5 625.5C228.5 625 230.5 624 233.5 623.5C236.5 623 234.5 622.5 232 622.5C229.5 622.5 226 622 222.5 622C219 622 213 620.5 208.5 621C204 621.5 200.5 623.5 202 622C203.5 620.5 202.5 619.5 191.5 619C180.5 618.5 166 619 170 618C174 617 182 616.5 173 616C164 615.5 153 609.5 139.5 601.5C126 593.5 108.5 487.5 125.5 486.5C142.5 485.5 153.5 492 174 497C194.5 502 232.5 512 242.5 511C252.5 510 230.5 507 242.5 506.5C254.5 506 285.5 511 309.5 516.5C333.5 522 387 515 409.5 516.5C432 518 437 523 441 521.5C445 520 433.5 520.5 436 519C438.5 517.5 474.5 514 487 514.5C499.5 515 519.5 518 529.5 516C539.5 514 563 516 561.5 523C560 530 516 544.5 511.5 543C507 541.5 501 542 496.5 543C492 544 490.5 545.5 489 545C487.5 544.5 493 542 486.5 543.5C480 545 466.5 546.5 459 547C451.5 547.5 447 547 450 548C453 549 461 549 466.5 548.5C472 548 489.5 546 497 547C504.5 548 517.5 551 516 556C514.5 561 494.5 560 487 559C479.5 558 468.5 557 463.5 557C458.5 557 432.5 561 423.5 560C414.5 559 394.5 561 390 562C385.5 563 383.5 564.5 385.5 562.5C387.5 560.5 394.5 559 400.5 557.5C406.5 556 427.5 557 421 556C414.5 555 404.5 553 392 557C379.5 561 346 554.5 323 556C300 557.5 246 564 237.5 564.5C229 565 209 564 205.5 565.5C202 567 188 570.5 190 571C192 571.5 204 569.5 208 569.5C212 569.5 205 570.5 207 571C209 571.5 222.5 572 228 571.5C233.5 571 241 573 246 572C251 571 259 571.5 258.5 572C258 572.5 249 572.5 255.5 573C262 573.5 290.5 577 303 578.5C315.5 580 338.5 581.5 351.5 581.5C364.5 581.5 404.5 588.5 416.5 588.5C428.5 588.5 477 591 471 592C466.2 592.8 442.333 595.333 431 596.5Z" fill="#FFF0A6"/>
<path d="M273 415C254.6 418.2 216.667 426 200 429.5C157.5 447 224.5 433 236.5 432C248.5 431 284.5 424 296 420.5C307.5 417 342 410.5 338 409C334 407.5 296 411 273 415Z" fill="#FFF0A6"/>
<path d="M327.5 420.5C308.3 422.1 278.167 432.167 265.5 437C249 450.024 274 443.5 293.5 441C313 438.5 341.5 437.5 351 435C360.5 432.5 387 429 393.5 425C400 421 383.5 425.5 386 424C388.5 422.5 410.5 415 416 409C421.5 403 404 406.5 390 411C376 415.5 351.5 418.5 327.5 420.5Z" fill="#FFF0A6"/>
<path d="M479.5 423.5C480.5 426.5 489 428 504 415.5C509 416 521.5 409 526 410.5C530.5 412 535 412 544.5 412C554 412 563.5 409 569.5 411C575.5 413 578.5 419 578 422C577.5 425 573 426.5 560 425C547 423.5 548.5 424.5 552 428C555.5 431.5 560 439 564 440C568 441 562 436.5 565 437.5C568 438.5 577 437.5 587.5 439C598 440.5 600 439.5 609 440.5C618 441.5 641.5 441.5 640.5 443C639.5 444.5 635 444.5 647.5 445.5C660 446.5 669 443.5 678.5 441.5C688 439.5 710.5 439 708.5 440C706.5 441 690 442 706.5 442.5C723 443 743 431.5 751.5 428.5C760 425.5 795 414.5 790.5 421C786 427.5 795.5 429 801 430C806.5 431 830.5 427 854.5 423C878.5 419 916.5 416.5 912 418C907.5 419.5 892.5 419.5 896 423C899.5 426.5 964 423.5 984.5 423C1005 422.5 1045 411 1041.5 352.5C1038 294 899.5 166.5 788.5 160C677.5 153.5 460 173.5 468 192C476 210.5 527 217.5 541.5 217.5C557.64 217.5 577.5 227 570.5 233C563.5 239 538.5 239 521.5 246C508.358 251.411 507 251 539.5 249C557.201 247.911 548 273.5 534.5 273.5C521 273.5 524 266.5 503.5 264C483 261.5 468.5 269 453.5 267.5C438.5 266 398 275 386.5 276.5C375 278 355.567 276.267 380.5 282.5C398.5 287 397.5 287 435 284.5C472.5 282 516 303.5 507 301.5C498 299.5 471 300.5 457.5 309.5C444 318.5 431.5 329 416 331.5C400.5 334 368.5 337 327.5 329C286.5 321 302.5 328.5 320 341C337.5 353.5 351 355.5 365 363.5C379 371.5 398 378 397 375.5C396 373 380 364 387.5 367.5C395 371 421.5 370 439 371C456.5 372 487.5 370.5 485 378.5C482.5 386.5 464.5 393.5 457.5 394C450.5 394.5 428.5 399.5 429 403.5C429.5 407.5 438.5 409 448.5 415.5C458.5 422 478.5 420.5 479.5 423.5Z" fill="#FFF0A6"/>
<path d="M691 533C683.4 531.8 668.167 536.167 661.5 538.5C636.167 529.5 586.6 510.2 591 505C596.5 498.5 625.5 487 635.5 484C645.5 481 666 476.5 676 481.5C686 486.5 708 485 717.5 485C727 485 739.5 483 735 482.5C730.5 482 728.5 483 724.5 482.5C720.5 482 714 480.5 709.5 480C705 479.5 698.5 482 702 480.5C705.5 479 711 476 719 475.5C727 475 741 474.5 749 478C757 481.5 766 480.5 765 481.5C764 482.5 754.5 486 762.5 486C770.5 486 780.5 484.5 780 486C779.5 487.5 773 492.5 773 493.5C773 494.5 782.5 487 786.5 486.5C790.5 486 801.5 485.5 807 484.5C812.5 483.5 842.5 479 850 481.5C857.5 484 884.5 482 885 485C885.5 488 878 492 875 495C872 498 878 495.5 877 498C876 500.5 862 504.5 856 506C850 507.5 840.5 509.5 840.5 511.5C840.5 513.5 846.5 511.5 846 512.5C845.5 513.5 834.5 515.5 830 515C825.5 514.5 814.5 518 812 519.5C809.5 521 804 521.5 804 521C804 520.5 810.5 517.5 807 518C803.5 518.5 779 526.5 786 526.5C793 526.5 801 522.5 800 524.5C799 526.5 788.5 529 777 531.5C765.5 534 744 533 736.5 531.5C729 530 726.5 530.5 717.5 531.5C708.5 532.5 700.5 534.5 691 533Z" fill="#FFF0A6"/>
<path d="M855.5 667.5C854.7 667.5 849.167 667.167 846.5 667C636.667 670.667 214.6 677.7 205 676.5C193 675 183.5 674 177.5 674C171.5 674 170 674 166 674.5C162 675 158 675 157 675H146.5L138.5 899L1212.5 914C1213.5 847.833 1214.9 714.9 1212.5 712.5C1209.5 709.5 1207.5 708.5 1203 709C1198.5 709.5 1188 708.5 1184 708.5C1180 708.5 1178 707.5 1172 707.5H1158.5C1156 707.5 1156 706.5 1154.5 706C1153 705.5 1153 706 1151.5 705.5C1150 705 1149.5 702.5 1146 701.5C1142.5 700.5 1139.5 701 1135 700.5C1130.5 700 1128 697 1122 697C1116 697 1113.5 697.5 1107 697C1100.5 696.5 1101 698.5 1095 698.5C1089 698.5 1088.5 696.5 1084 696C1079.5 695.5 1080.5 695.5 1075.5 695C1070.5 694.5 1065.5 694 1060 694.5C1054.5 695 1050.5 695 1043.5 694.5C1036.5 694 1032.5 695 1028.5 695C1024.5 695 1020.5 694 1019.5 693.5C1018.5 693 1020 693 1022 692.5C1023.96 692.011 1034.52 692 1034.52 692L1034.5 692C1034.1 692 1030.33 690.667 1028.5 690C1029.5 690.167 1032.5 690.3 1036.5 689.5C1041.5 688.5 1050.5 686.5 1048 686.5C1045.5 686.5 1025.5 685.5 1022 685C1018.5 684.5 1010 685 1006.5 685.5C1003 686 1000 686 994.5 686.5C989 687 982.5 686 981 686C979.5 686 978.5 684.5 976 684C973.5 683.5 967 683.5 964 684C961 684.5 959 685 954 684.5C949 684 946 683 944.5 683C943 683 945 680.5 952.5 681C960 681.5 973.5 681.5 980 681C986.5 680.5 1006 680.5 1013.5 681C1021 681.5 1034.5 681 1037.5 681C1039.9 681 1053.17 680.667 1059.5 680.5C1059.5 679.7 1059.17 677.5 1059 676.5C1061.5 676 1083 676 1095.5 676.5C1108 677 1160.5 676.5 1163.5 676.5C1166.5 676.5 1177.5 677 1185.5 677C1193.5 677 1211 676 1208 675.5C1205 675 1195 675 1186 674.5C1177 674 1175.5 673 1168.5 673C1161.5 673 1115.5 671.5 1102.5 671.5C1089.5 671.5 1079 672 1076 671.5C1073 671 1064 670.5 1058 670.5H1038C1030.5 670.5 1027.5 669.5 1023 669.5C1018.5 669.5 1013.5 671 1002 669.5C990.5 668 977.5 669 973 669C968.5 669 954.5 669.5 949 669C943.5 668.5 944 668 937 668.5C930 669 912.5 668.5 908.5 668C904.5 667.5 897 667 893.5 667H873C866 667 863 667.5 861.5 667.5C860 667.5 859 666.5 858 666.5C857 666.5 856.5 667.5 855.5 667.5Z" fill="#E5C17E"/>
<path d="M1171 678.5C1169.8 678.9 1167.5 679 1166.5 679L1194 680C1193.67 679.833 1192.6 679.4 1191 679C1189 678.5 1180.5 678 1178.5 678C1176.5 678 1172.5 678 1171 678.5Z" fill="#E5C17E"/>
<path d="M1188 703C1184 702.6 1164.33 702.833 1155 703C1156.83 702.5 1161.9 701.4 1167.5 701C1174.5 700.5 1183.5 699.5 1188 699C1192.5 698.5 1194.5 698 1196.5 699C1198.5 700 1208.5 699.5 1212.5 699.5C1216.5 699.5 1217 702 1212 703.5C1207.21 704.936 1194.17 703.622 1188.68 703.069L1188 703Z" fill="#E5C17E"/>
<path d="M1186 708C1183.6 708.4 1182.33 707.5 1182 707C1180.24 705.501 1185.5 705.5 1188.5 706C1191.5 706.5 1194.5 706 1205.5 706C1216.5 706 1215 708 1213 708C1211 708 1205.5 707 1204.5 707C1203.5 707 1189 707.5 1186 708Z" fill="#E5C17E"/>
<path d="M1070.5 677.5C1068.5 677.5 1066.33 678.833 1065.5 679.5C1071.33 679.833 1082.7 680.4 1081.5 680C1080 679.5 1073 677.5 1070.5 677.5Z" fill="#E5C17E"/>
<path fill-rule="evenodd" clip-rule="evenodd" d="M254 734.23C253.1 732.204 248.779 719.949 244.103 706.5C240.752 696.862 237.219 686.611 234.632 679.073L242.5 659.23C245.31 658.879 253.057 659.268 258.284 659.53C260.496 659.642 262.257 659.73 263 659.73C265.5 659.73 275 659.23 281 658.73C283.614 658.512 290.308 658.105 297.403 657.673C306.595 657.113 316.46 656.512 319 656.23C321.15 655.991 328.891 656.665 337.099 657.38C346.073 658.161 355.605 658.991 359 658.73C365.5 658.23 407 654.73 412.5 652.73C418 650.73 455.5 634.73 464.5 630.23C468.512 628.224 473.616 625.92 477.91 623.982C483.248 621.573 487.331 619.73 486.5 619.73C485 619.73 484 619.23 483 618.23C482.2 617.43 480.667 617.563 480 617.73C485.5 611.23 513 601.23 518 601.23C520.312 601.23 522.196 601.764 524.048 602.29C526.201 602.9 528.312 603.499 531 603.23C533.33 602.997 535.769 601.678 538.064 600.437C540.692 599.015 543.131 597.696 545 598.23C546.095 598.543 548.856 599.199 552.285 600.013L552.286 600.014C559.815 601.802 570.565 604.356 574 605.73C579 607.73 601.5 614.23 604 614.73C604.957 614.921 607.305 615.625 610.149 616.478L610.151 616.478C614.735 617.853 620.606 619.613 624 620.23C627.158 620.804 631.471 621.214 635.044 621.553L635.045 621.553C637.694 621.804 639.936 622.017 641 622.23C642.38 622.506 644.826 623.391 647.33 624.297L647.332 624.298C649.363 625.033 651.432 625.782 653 626.23C656.5 627.23 665.5 628.73 668.5 629.23C669.94 629.47 673.683 630.516 677.74 631.65C682.136 632.878 686.9 634.21 689.5 634.73C693.5 635.53 704.167 638.73 709 640.23C711.5 640.063 716.9 639.73 718.5 639.73C719.5 639.73 720.375 639.605 721.25 639.48C722.125 639.355 723 639.23 724 639.23C726 639.23 730.5 640.23 732 640.73C733.5 641.23 740 644.23 741.5 645.23C743 646.23 745.5 647.73 747.5 648.23C748.833 648.563 749.278 648.452 749.722 648.341C749.944 648.286 750.167 648.23 750.5 648.23C751.062 648.23 751.623 648.861 752.273 649.591C752.781 650.161 753.342 650.792 754 651.23C754.592 651.625 755.341 651.864 756.276 652.163C757.709 652.62 759.58 653.217 762 654.73C764.123 656.057 767.231 656.961 770.428 657.891C773.256 658.714 776.153 659.557 778.5 660.73C781.513 662.236 784.889 663.561 788.081 664.814C790.186 665.64 792.211 666.435 794 667.23C798.5 669.23 805 670.73 806.5 670.73C807.25 670.73 810.625 671.48 814 672.23C817.375 672.98 820.75 673.73 821.5 673.73C823 673.73 828.5 673.73 831 674.23C833.5 674.73 837 675.23 840.5 675.23C844 675.23 846 675.23 847.5 674.73C848.7 674.33 848 675.563 847.5 676.23L850.5 675.23C852 674.73 854.5 674.73 854 676.23C853.5 677.73 849 687.23 847 688.73C846.055 689.439 843.21 689.478 839.786 689.269C839.635 690.62 839.388 692.066 839 693.23C838.5 694.73 838 697.355 837.5 699.98C837 702.605 836.5 705.23 836 706.73C835 709.73 834.5 716.73 834.5 717.73C834.5 718.462 834.232 718.926 833.892 719.515C833.768 719.73 833.634 719.962 833.5 720.23C833.29 720.649 833.344 721.86 833.404 723.198C833.487 725.051 833.581 727.149 833 727.73C832 728.73 828.5 729.23 827.5 729.23C826.5 729.23 823.5 730.73 821.5 731.73C820.283 732.338 819.251 732.392 818.066 732.453C817.304 732.492 816.479 732.534 815.5 732.73C813 733.23 810.5 734.23 807.5 735.73C804.5 737.23 799.5 738.73 796 739.73C793.417 740.468 790.562 741.75 787.837 742.975C786.869 743.409 785.917 743.837 785 744.23C783.132 745.03 782.404 745.546 781.219 746.385C780.183 747.118 778.798 748.098 776 749.73C772.896 751.54 769.793 753.886 766.897 756.075C764.194 758.117 761.672 760.023 759.5 761.23C756.393 762.956 750.902 767.543 747.307 770.546C745.695 771.892 744.464 772.92 744 773.23C743.286 773.706 742.912 774.295 742.5 774.944C742.047 775.658 741.548 776.444 740.5 777.23C739.5 777.98 738.125 779.355 736.625 780.855C735.125 782.355 733.5 783.98 732 785.23C729.6 787.23 722.667 792.73 719.5 795.23C718.3 795.63 713.667 795.063 711.5 794.73C711.1 796.33 710.333 799.063 710 800.23C709.2 800.23 704.333 800.563 702 800.73V807.23C702 807.63 698.667 810.73 697 812.23C693.8 813.83 685.667 814.563 682 814.73C682 816.897 681.9 821.43 681.5 822.23C681 823.23 662.5 836.73 656 840.73C653.776 842.099 652.02 843.35 650.232 844.625C646.794 847.076 643.236 849.612 636 853.23C627.2 857.63 618.333 862.397 615 864.23C615.5 867.23 615 875.23 611.5 880.73C608 886.23 598.5 889.23 593 886.73C587.5 884.23 584 877.73 583 875.73C582.574 874.878 582.42 873.845 582.268 872.824C582.063 871.447 581.861 870.091 581 869.23C580.168 868.398 578.107 868.335 576.094 868.274C574.477 868.224 572.891 868.175 572 867.73C570 866.73 559.5 859.23 556 855.23C553.667 852.563 553.333 849.897 552.926 846.637C552.722 845.008 552.5 843.23 552 841.23C550.5 835.23 548.5 832.23 546 832.23C544 832.23 534.833 831.23 530.5 830.73C527.3 828.33 515.833 818.063 510.5 813.23C510.167 810.23 509.3 803.93 508.5 802.73C507.945 801.897 505.694 801.835 503.459 801.773C501.669 801.724 499.89 801.675 499 801.23C497 800.23 487.5 793.73 487 791.23C486.85 790.48 486.79 789.91 486.739 789.425C486.62 788.295 486.55 787.63 485.5 786.23C484.664 785.115 482.429 784.311 480.096 783.471C478.243 782.804 476.328 782.115 475 781.23C472.6 779.63 470.333 776.563 469.5 775.23C468.7 772.83 466.833 765.563 466 762.23C465.6 761.43 465.5 757.897 465.5 756.23C465.1 755.03 462.333 748.73 461 745.73C458.6 744.93 431 739.73 417.5 737.23C414.7 737.23 393 738.23 382.5 738.73C382.1 740.33 380.333 742.063 379.5 742.73C376.3 743.53 361.5 744.73 354.5 745.23C354.333 743.397 353.8 739.53 353 738.73C352.2 737.93 348.667 738.063 347 738.23V743.73H342L312 740.73L310 737.73L310.5 740.23H299.5L282.5 738.73L282 737.23C281.2 737.23 263 735.23 254 734.23Z" fill="#D9A068"/>
<path d="M188.5 678.73C200.063 678.822 218.69 678.964 234.632 679.073C237.219 686.611 240.752 696.862 244.103 706.5H186.5L188.5 678.73Z" fill="#D9A068"/>
<path d="M638 866C624 873 617.5 864 615 872.5C613.221 878.55 625.294 887.425 627.5 889C632 892.603 622.5 907.5 612.5 905C602.5 902.5 586 895 581 889C576 883 595 881 591.5 879C588 877 576.5 878 569 872.5C561.5 867 580 871 584.5 866C589 861 579.5 861 569 861.5C558.5 862 557.5 856.5 546.5 853C540.944 851.232 565.5 848.5 559.5 844C553.5 839.5 535 839.5 540 836C545 832.5 540.763 830.671 529.5 826.5C516 821.5 505 822 505 815.5C505 809 516.305 806.602 507.5 803C496.5 798.5 490.5 802.5 483.5 796.5C476.5 790.5 501 792.5 490.5 790.5C480 788.5 456.5 780.5 456.5 775C456.5 770.757 485.451 765.566 476.5 764.5C455.5 762 443.219 758.58 450.5 755.5C463.5 750 479.5 748 456.5 743C433.5 738 398.5 748 378 745.5C357.5 743 343.5 745 310.5 745.5C277.5 746 280.5 745.5 273.5 742C266.5 738.5 276.5 733.5 268 733.5C259.5 733.5 245.5 734.5 247 731.5C248.5 728.5 263 722 257 720C251 718 250.5 719.5 236 717C221.5 714.5 244.5 711.5 232 708.5C219.5 705.5 199.5 697.5 210 694.5C220.5 691.5 824.055 676.768 843.5 675C865.5 673 860 679.5 852 682C843.873 684.54 819.5 690 831 699C834.5 701.739 838.5 702.5 846.5 706C855.252 709.829 832 709.5 826 711.5C820 713.5 827.5 720.5 837.5 726C847.5 731.5 813.5 729 791.5 727.5C769.5 726 763 742 785 747.5C807 753 786 755.5 771 758C756 760.5 712 774.5 734 773C756 771.5 767 781 748.5 782.5C730 784 694 791 710.5 801.5C724.446 810.375 726 808 717.5 811.5C709 815 670 810.5 675.5 811.5C681 812.5 705 826.5 699 828C693 829.5 648 831 652 832C656 833 676.5 842.5 669.5 844C662.5 845.5 627 847 627.5 853C628 859 652 859 638 866Z" fill="#D9A068"/>
<path d="M409.5 801.5C414.7 800.3 433 799.667 441.5 799.5C444 799.444 468.5 797.5 468.5 799.5C468.5 801.5 454 802.5 452 802.5C450 802.5 448 805 452.5 806C457 807 446.5 808 440 809.5C433.5 811 435 816 441.5 815C448 814 444 818 435 818C426 818 428.5 819.5 411.5 819C394.5 818.5 418.5 816 425.5 816C432.5 816 434 809 428.5 808C423 807 409.5 805.5 417 805C424.5 804.5 430.5 803 427 803C423.5 803 403 803 409.5 801.5Z" fill="#D9A068"/>
<path d="M809 755.5C815.5 755 850 758 853.5 758C853.833 764.167 854 777.4 852 781C849.5 785.5 810 775 799.5 774C789 773 766 766.5 774 766.5C782 766.5 806 765.5 802.5 765C799 764.5 793.5 762 797 762C800.5 762 817 760.5 815 760C813 759.5 802.5 756 809 755.5Z" fill="#D9A068"/>
<path d="M458 875.5C478.833 874.5 524.4 872.5 540 872.5C559.5 872.5 532 877 529.5 881.5C527 886 541.5 884 553.5 886.5C563.685 888.622 542.893 892.545 525.364 892.154C531.974 894.123 538.598 897.769 539 904C540 919.5 484.5 914 473.5 909C462.5 904 484.5 891.5 489 891.5C493.5 891.5 453.5 886.5 458 885C462.5 883.5 481.5 883.5 487 882.5C492.5 881.5 442 883.5 438.5 881.5C435 879.5 446.5 876.037 458 875.5Z" fill="#D9A068"/>
<path d="M254 618.5C252.4 622.1 240 658 234 675.5L434 687.5L615 694L840 667C840 665.5 839.8 661.9 839 659.5C838 656.5 837 649 836 646C835 643 834.5 636 834.5 635C834.5 634 834 633.5 833.5 632.5C833 631.5 834 626 833 625C832 624 828.5 623.5 827.5 623.5C826.5 623.5 823.5 622 821.5 621C819.5 620 818 620.5 815.5 620C813 619.5 810.5 618.5 807.5 617C804.5 615.5 799.5 614 796 613C792.5 612 788.5 610 785 608.5C781.5 607 782 606.5 776 603C770 599.5 764 594 759.5 591.5C755 589 745.5 580.5 744 579.5C742.5 578.5 742.5 577 740.5 575.5C738.5 574 735 570 732 567.5C729.6 565.5 722.667 560 719.5 557.5C718.3 557.1 713.667 557.667 711.5 558C711.1 556.4 710.333 553.667 710 552.5C709.2 552.5 704.333 552.167 702 552V545.5C702 545.1 698.667 542 697 540.5C693.8 538.9 685.667 538.167 682 538C682 535.833 681.9 531.3 681.5 530.5C681 529.5 662.5 516 656 512C649.5 508 647 505 636 499.5C627.2 495.1 618.333 490.333 615 488.5C615.5 485.5 615 477.5 611.5 472C608 466.5 598.5 463.5 593 466C587.5 468.5 584 475 583 477C582 479 582.5 482 581 483.5C579.5 485 574 484 572 485C570 486 559.5 493.5 556 497.5C552.5 501.5 553.5 505.5 552 511.5C550.5 517.5 548.5 520.5 546 520.5C544 520.5 534.833 521.5 530.5 522C527.3 524.4 515.833 534.667 510.5 539.5C510.167 542.5 509.3 548.8 508.5 550C507.5 551.5 501 550.5 499 551.5C497 552.5 487.5 559 487 561.5C486.5 564 487 564.5 485.5 566.5C484 568.5 478 569.5 475 571.5C472.6 573.1 470.333 576.167 469.5 577.5C468.7 579.9 466.833 587.167 466 590.5C465.6 591.3 465.5 594.833 465.5 596.5C465.1 597.7 462.333 604 461 607C458.6 607.8 431 613 417.5 615.5C414.7 615.5 393 614.5 382.5 614C382.1 612.4 380.333 610.667 379.5 610C376.3 609.2 361.5 608 354.5 607.5C354.333 609.333 353.8 613.2 353 614C352.2 614.8 348.667 614.667 347 614.5V609H342L312 612L310 615L310.5 612.5H299.5L282.5 614L282 615.5C281.2 615.5 263 617.5 254 618.5Z" fill="#D9A068"/>
<path fill-rule="evenodd" clip-rule="evenodd" d="M408.5 672.5L415.5 641.5L425 640C422.667 650.833 418 673 418 675C418 677 411.667 674.167 408.5 672.5ZM423 658L422 662.5H423.5L425 658H423ZM394 655L398.5 655.5L398 660H393.5L394 655ZM596 477.5V482.5L600 483V477.5H596Z" fill="#CC7A52"/>
<path d="M393 627C399.833 627.167 413.9 627.5 415.5 627.5C417.5 627.5 450.5 622 453.5 621.5C455.083 621.236 456.173 621.103 456.827 621.043C457.165 621.012 457.387 621 457.5 621C454 638.833 446.8 675.1 446 677.5L456.5 622.5C450.833 623.5 438.2 625.7 433 626.5C426.5 627.5 416 629 415.5 629C415 629 408 629 402 628.5C400.007 628.334 393.5 628.167 392 628L393 627Z" fill="#CC7A52"/>
<path d="M457.5 621L461 607L456.827 621.043C457.165 621.012 457.387 621 457.5 621Z" fill="#CC7A52"/>
<path d="M381.5 633.5C381.5 646.59 381.3 673.916 380.5 678.5L382 675.5C382.167 664.5 382.3 640.7 381.5 633.5Z" fill="#CC7A52"/>
<path d="M366 622C359.667 621.5 345.8 620.4 341 620C335 619.5 311 623 306.5 623C302 623 252.984 627.12 250.742 627.31C250.604 627.697 250.463 628.094 250.319 628.5C253.546 628.207 261.2 627.558 266 627.31C272 627 281 626 288.5 625.5L318.5 623.5C326 623 338.5 621 343.5 621.5C347.5 621.9 353.167 622.333 355.5 622.5L366 622Z" fill="#CC7A52"/>
<path d="M697 540.5C693.8 538.9 685.667 538.167 682 538C685.667 538.667 693.3 540.4 694.5 542C696 544 697 552.5 697 554C697 555.5 700.5 548 702 545.5C702 545.1 698.667 542 697 540.5Z" fill="#CC7A52"/>
<path d="M465.697 592C465.545 593.41 465.5 595.378 465.5 596.5C467.167 595.167 471.6 591.7 476 588.5C481.5 584.5 497 572.5 501.5 569C506 565.5 523.5 553 530.5 548C537.5 543 550.5 533.5 553.5 530.5C556.5 527.5 561 524 565.5 523C568.878 522.249 578.978 522.32 584.479 522.47C578.098 522.075 579.096 517.928 581 516.5C582.6 515.3 590 515 593.5 515C586.833 514.667 571.5 514.8 563.5 518C553.5 522 534.5 539.5 526 545C517.5 550.5 504.5 562 499 566C493.5 570 480.5 580 476 583.5C472.4 586.3 467.631 590.333 465.697 592Z" fill="#CC7A52"/>
<path d="M374.5 622C370.9 621.2 359 621.667 353.5 622C351.787 629.2 343.453 651 339.5 661C345.333 658.5 359.2 652.3 368 647.5C379 641.5 381 638.5 381.5 636.5C381.9 634.9 381.846 628.167 381.769 625C380.876 623.323 379.315 623.002 376.385 622.399C375.811 622.281 375.185 622.152 374.5 622Z" fill="#E6C17E"/>
<path fill-rule="evenodd" clip-rule="evenodd" d="M274.153 616.293L273.5 617.5L276.5 617L273 618L271.5 621L281.5 618.5L282 615.5C281.674 615.5 278.458 615.832 274.153 616.293ZM299.5 612.5L298 618.5L310 615L310.5 612.5H299.5ZM342 609L341 615.5L347 609H342ZM355.641 607.583L355.956 607.606C357.701 607.737 357.5 607.5 357.5 610C357.5 612.5 355.5 618 353 618.5C351 618.9 345.5 619 343 619C348.167 619.333 359.1 620 361.5 620C364.5 620 377.5 620.5 380 621.5C382.274 622.41 383.307 624.561 383.852 625.695C383.906 625.807 383.955 625.91 384 626C384.5 627 394 627.5 397 626C400 624.5 414 617.464 416.5 615.482C411.348 615.345 392.172 614.461 382.5 614C382.1 612.4 380.333 610.667 379.5 610C376.508 609.252 363.372 608.154 355.956 607.606C355.841 607.585 355.734 607.579 355.641 607.583ZM833.845 633.133C833.86 633.16 833.875 633.187 833.891 633.213L833.892 633.215C833.877 633.188 833.861 633.161 833.845 633.133ZM391 628C385.5 628 383 628 382 625.5V633C382.8 631.8 388.333 629.167 391 628Z" fill="#E6C17E"/>
<path d="M836 646C835 643 834.5 636 834.5 635C834.5 634.611 834.424 634.297 834.302 634C832.604 633.5 829 633 825.5 631.5C822 630 813 627.5 810 627C807 626.5 790 622.5 786.5 621C783 619.5 775 614.5 771 612C768.063 610.165 754.885 602.753 745.167 597.298C741.65 595.323 738.585 593.604 736.625 592.5C729.25 588.345 689.5 564.5 686 562.5C682.5 560.5 672 555 667.5 552.5C663 550 651.5 544 646 541C640.5 538 630 533.5 624 531C618 528.5 608.5 526 599.5 524C592.3 522.4 583.833 523.667 580.5 524.5C579 524.333 576.3 526.5 577.5 536.5C579 549 577 585.5 572.5 610.5C568 635.5 569.5 659 566.5 660.5C570 660.167 578.1 659.7 582.5 660.5C588 661.5 600 662 603 662.5C606 663 606.5 662.5 612 665.5C617.5 668.5 685.5 666 686.5 663C687.5 660 687 639 687.5 631.5C688 624 688 592.5 687.5 586C688.5 592.667 690.6 608 691 616C691.5 626 694 651 695 656C696 661 696 664.5 697.5 668C698.7 670.8 739.333 668.5 759.5 667C758.667 657.667 756.8 638.2 756 635C755 631 753 623.5 752.5 617.5C753.333 621 755.2 628.5 756 630.5C757 633 758 639.5 758.5 643.5C759 647.5 760.5 665 761.5 667C762.3 668.6 801.167 669.227 820.5 669.34L840 667C840 665.5 839.8 661.9 839 659.5C838.5 658 838 655.375 837.5 652.75C837 650.125 836.5 647.5 836 646Z" fill="#E6C17E"/>
<path d="M833.891 633.213L833.845 633.133C833.734 632.941 833.617 632.734 833.5 632.5C830 631 818.066 626 815.5 625.5C812.934 625 808.5 624 805.5 623C804.059 622.52 801.116 621.872 798.005 621.188C794.64 620.447 791.078 619.664 789 619C785 617.723 775 611.5 771 609C770.139 608.462 769.023 607.762 767.752 606.964C763.119 604.056 756.424 599.854 752.5 597.5C750.577 596.346 748.581 595.341 746.596 594.341C743.418 592.74 740.27 591.154 737.5 589C734.266 586.485 727.674 582.161 722.737 579C716.474 575.5 697 564 690.5 560.5C684 557 650.5 536.5 647.5 534.5C644.5 532.5 631.785 525.925 628 524.5C624.215 523.075 608.5 517.5 603 516.5C597.5 515.5 590.5 515.5 586.5 515.5C583.3 515.5 581.5 517.5 581 518.5C580.5 521.5 584.5 522 586.5 522C588.5 522 591.5 520.5 595.5 521.5C599.5 522.5 619 527 624 529.5C629 532 650.5 541.5 655 544.5C659.5 547.5 683.5 559 685.5 560.5C687.5 562 710.5 575.5 714 577.5C716.8 579.1 735.945 591.365 745.167 597.298C754.885 602.753 768.063 610.165 771 612C775 614.5 783 619.5 786.5 621C790 622.5 807 626.5 810 627C813 627.5 822 630 825.5 631.5C829 633 832.604 633.5 834.302 634C834.195 633.739 834.051 633.491 833.892 633.215L833.891 633.213Z" fill="#E6C17E"/>
<path d="M546 520.5C544 520.5 534.833 521.5 530.5 522L530 529L538.5 528.5C540.333 526.687 544.8 522.406 548 519.781C547.373 520.26 546.707 520.5 546 520.5Z" fill="#E6C17E"/>
<path d="M487 569.5C487.167 570.667 487.7 573.1 488.5 573.5H489.5C489.167 572.667 488.4 570.6 488 569L487 569.5Z" fill="#E6C17E"/>
<path d="M471.5 581C471.5 582.333 471.8 585.1 473 585.5H474C473.5 584.5 472.5 582.2 472.5 581H471.5Z" fill="#E6C17E"/>
<path fill-rule="evenodd" clip-rule="evenodd" d="M611.5 472C615 477.5 615.5 485.5 615 488.5C618.333 490.333 627.2 495.1 636 499.5C643.236 503.118 646.794 505.654 650.232 508.105C652.02 509.38 653.776 510.631 656 512C662.5 516 681 529.5 681.5 530.5C681.9 531.3 682 535.833 682 538V544C686 545.6 694 550.667 697.5 553L697 540.5C698.667 542 702 545.1 702 545.5V552C704.333 552.167 709.2 552.5 710 552.5C710.333 553.667 711.1 556.4 711.5 558V563C714 564.333 719.2 567.3 720 568.5L719.5 557.5C722.667 560 729.6 565.5 732 567.5C733.5 568.75 735.125 570.375 736.625 571.875C738.125 573.375 739.5 574.75 740.5 575.5C741.548 576.286 742.047 577.072 742.5 577.786C742.912 578.435 743.286 579.024 744 579.5C744.464 579.81 745.695 580.838 747.307 582.184C750.902 585.187 756.393 589.774 759.5 591.5C761.672 592.707 764.193 594.612 766.895 596.654L766.897 596.655C769.793 598.844 772.896 601.19 776 603C778.798 604.632 780.183 605.612 781.219 606.345C782.404 607.184 783.132 607.7 785 608.5C785.917 608.893 786.869 609.321 787.837 609.755C790.562 610.98 793.417 612.262 796 613C799.5 614 804.5 615.5 807.5 617C810.5 618.5 813 619.5 815.5 620C816.479 620.196 817.304 620.238 818.066 620.277C819.251 620.338 820.283 620.392 821.5 621C823.5 622 826.5 623.5 827.5 623.5C828.5 623.5 832 624 833 625C833.581 625.581 833.487 627.679 833.404 629.532C833.344 630.87 833.29 632.081 833.5 632.5C830 631 818.066 626 815.5 625.5C812.934 625 808.5 624 805.5 623C804.059 622.52 801.116 621.872 798.005 621.188C794.64 620.447 791.078 619.664 789 619C785 617.723 775 611.5 771 609C770.139 608.462 769.023 607.762 767.752 606.964C763.119 604.056 756.424 599.854 752.5 597.5C750.577 596.346 748.581 595.341 746.596 594.341C743.418 592.74 740.27 591.154 737.5 589C734.266 586.485 727.674 582.161 722.737 579C720.804 577.763 719.125 576.703 718 576C716 574.75 708.75 570.5 701.5 566.25C694.25 562 687 557.75 685 556.5C681 554 665 544 660 541C655 538 641 530.5 634 527C628.926 524.463 624.377 522.714 619.401 520.801C617.513 520.075 615.563 519.325 613.5 518.5C607.5 516.1 598 515.167 594 515L595.5 511L585 510.5V507.5L581.5 511.5C580.732 510 580.5 506 582.268 499.5C583.153 496.247 585.34 492.241 587.115 488.99C588.887 485.745 590.249 483.25 589.5 483C588.3 482.6 585.667 482.5 584.5 482.5C586.9 482.237 591.833 482.39 594 482.5C603.5 484.927 611.5 488.5 615.5 490C612.5 488 596.9 482.591 594.278 482.106C595 480.304 595 473.14 595 470C595 467.2 596.667 465.573 597.5 465.109C602.704 465.079 608.838 467.817 611.5 472Z" fill="#E6C17E"/>
<path d="M184 685.66C182.8 688.06 180.167 691.327 179 692.66C187.333 692.494 205.2 692.261 210 692.66C216 693.16 241 692.661 245 693.161C249 693.661 263 692.661 265.5 692.661C268 692.661 277.5 693.161 283.5 693.661C289.5 694.161 317 695.661 321.5 696.161C326 696.661 355 693.161 361.5 693.661C368 694.161 409.5 697.661 415 699.661C420.5 701.661 458 717.661 467 722.161C476 726.661 490.5 732.661 489 732.661C487.5 732.661 486.5 733.161 485.5 734.161C484.7 734.961 483.167 734.827 482.5 734.661C488 741.161 515.5 751.161 520.5 751.161C525.5 751.161 528.5 748.661 533.5 749.161C538.5 749.661 544 755.161 547.5 754.161C551 753.161 571.5 748.661 576.5 746.661C581.5 744.661 604 738.161 606.5 737.661C609 737.161 621 733.161 626.5 732.161C632 731.161 641 730.661 643.5 730.161C646 729.661 652 727.161 655.5 726.161C659 725.161 668 723.661 671 723.161C674 722.661 687 718.661 692 717.661C696 716.861 706.667 713.661 711.5 712.161C714 712.327 719.4 712.661 721 712.661C723 712.661 724.5 713.161 726.5 713.161C728.5 713.161 733 712.161 734.5 711.661C736 711.161 742.5 708.161 744 707.161C745.5 706.161 748 704.661 750 704.161C752 703.661 752 704.161 753 704.161C754 704.161 755 702.161 756.5 701.161C758 700.161 760.5 700.161 764.5 697.661C768.5 695.161 776 694.161 781 691.661C786 689.161 792 687.161 796.5 685.161C801 683.161 807.5 681.661 809 681.661C810.5 681.661 822.5 678.661 824 678.661C825.5 678.661 831 678.661 833.5 678.161C836 677.661 839.5 677.161 843 677.161C846.5 677.161 848.5 677.161 850 677.661C851.2 678.061 850.5 676.827 850 676.161L853 677.161C854.5 677.661 857 677.661 856.5 676.161C856 674.661 851.5 665.161 849.5 663.661C847.5 662.161 837 663.661 830.5 664.161C824 664.661 798 665.661 789 665.661C780 665.661 704.5 665.161 701 664.661C697.5 664.161 694 663.161 690 662.661C686 662.161 636.5 664.16 623.5 664.16C610.5 664.16 585 660.16 571 661.16C557 662.16 539 663.66 527 665.16C515 666.66 439.5 671.66 435 672.16C430.5 672.66 374 672.66 365.5 672.66C357 672.66 323.5 671.16 321.5 671.16C319.5 671.16 277 673.16 265.5 673.16C256.3 673.16 212 673.494 191 673.66C189.167 676.66 185.2 683.26 184 685.66Z" fill="#CC7A52"/>
<path fill-rule="evenodd" clip-rule="evenodd" d="M329.073 671.876C323.667 671.66 319.653 671.5 319 671.5L318.5 674L321 673L318.5 674.5L318 676.5C318.4 676.1 325.833 673.262 329.5 671.893L329.073 671.876ZM517 666.236C520.5 666.324 528.6 666.3 533 665.5L528.5 668C530.333 667.333 535.1 665.9 539.5 665.5C543.04 665.178 543.887 666.928 543.642 669.282C546.555 667.508 554.428 669.355 558 670.5C556.667 670.333 553.1 670.1 549.5 670.5C545.9 670.9 543.333 672.667 542.5 673.5C541 677.5 539.5 692.5 539.5 693C540.078 693.219 541.445 693.657 542.293 693.657C542.739 693.657 543.467 693.54 544.31 693.405C545.468 693.22 546.842 693 548 693L542 695C541.25 695.25 540.625 695.125 540 695C539.375 694.875 538.75 694.75 538 695C538 696 538 702 537.5 704.5C537.288 705.561 536.986 707.433 536.67 709.389C536.5 710.439 536.326 711.514 536.161 712.5C536.441 714 537.7 717.3 540.5 718.5C543.389 719.738 552.413 719.614 558.286 719.532C559.527 719.515 560.628 719.5 561.5 719.5C562.272 719.5 563.151 719.512 564.095 719.525C569.266 719.595 576.386 719.691 578.5 718C580.759 716.193 580.553 713.978 580.378 712.093L580.378 712.09C580.359 711.889 580.341 711.692 580.326 711.5C580.016 710.667 579.728 709.956 579.5 709.5C578.7 707.9 578.5 704.5 578.5 703C578.5 704.633 578.833 705.599 579.5 707.532C579.65 707.966 579.816 708.449 580 709C580.567 710.701 581.669 713.506 582.56 715.708C583.62 716.916 585 717.5 587.5 717.5C589.286 717.5 595.918 716.224 600.656 715.313C602.551 714.949 604.143 714.643 605 714.5C605.703 714.383 606.352 714.266 606.964 714.155C608.965 713.793 610.586 713.5 612.5 713.5C615 713.5 616 715 614 715.5C612.449 715.888 608.194 716.576 604.962 717.098C604.025 717.25 603.174 717.388 602.5 717.5C599.5 718 596 721.5 596 723C596 724.17 596.634 727.969 596.974 729.858C596.766 728.788 596.029 726.529 594.5 725C592.5 723 583.5 721 578.5 721.5C573.5 722 567.5 724.5 567 726.271C566.688 727.378 567.372 728.633 568.004 729.44C568.187 729.618 568.353 729.804 568.5 730C569.7 731.6 570.667 736.667 571 739C570.167 736.833 568.2 732 567 730C565.954 728.257 563.062 726.894 561.232 726.242C560.962 726.145 560.715 726.064 560.5 726C554.9 724.4 548.5 726 546 727C543 728.167 536.7 731.8 535.5 737C535.618 736.114 536.017 734.851 536.821 733.5C536.047 734.072 534.3 736.672 533.5 742.5C532.7 748.328 532.833 749.884 533 749.933C534.7 750.474 536.419 751.404 538.064 752.293C540.692 753.715 543.131 755.034 545 754.5C546.095 754.187 548.856 753.531 552.285 752.717C558.759 751.179 567.616 749.075 572.154 747.642C572.373 745.985 572.678 742.403 572.154 741.335C572.77 742.057 574 744.2 574 747C579 745 601.5 738.5 604 738C604.957 737.809 607.305 737.105 610.149 736.252C614.734 734.878 620.605 733.117 624 732.5C627.158 731.926 631.471 731.516 635.044 731.177C637.693 730.926 639.936 730.713 641 730.5C642.38 730.224 644.826 729.339 647.33 728.433C649.362 727.697 651.432 726.948 653 726.5C656.031 725.634 663.189 724.393 667 723.751C666.5 721.834 665.1 717.1 663.5 713.5C665 716.284 668.4 722.116 670 723.175C671.851 722.726 674.708 721.927 677.74 721.08C682.136 719.852 686.9 718.52 689.5 718C693.5 717.2 704.167 714 709 712.5C708.917 712.307 708.832 712.109 708.744 711.904L708.726 711.863C707.213 708.352 704.971 703.148 704.5 697.5C704 691.5 702.5 688.5 701 686C699.5 683.5 699 677.5 699 674C699 671.2 698 666.73 697.5 664.844C696.246 664.635 694.986 664.373 693.697 664.106C691.727 663.697 689.688 663.274 687.5 663C685.274 662.722 668.963 663.218 652.69 663.712C639.716 664.106 626.767 664.5 621 664.5C615.545 664.5 607.889 663.796 599.805 663.052C588.625 662.023 576.625 660.92 568.5 661.5C554.5 662.5 536.5 664 524.5 665.5C522.956 665.693 520.36 665.944 517 666.236ZM724 713.5C723.285 713.5 722.633 713.436 722 713.354C720.178 711.79 719.153 708.335 718.344 705.608C718.043 704.592 717.771 703.678 717.5 703C717.296 702.49 716.968 701.69 716.582 700.751L716.577 700.739L716.575 700.733L716.564 700.706C715.058 697.037 712.707 691.311 713.5 692.5C714.3 693.7 715.833 695.667 716.5 696.5C714.5 692.667 710 684.1 708 680.5C707.311 679.26 706.66 678.019 706.036 676.831L706.034 676.828C704.396 673.707 702.948 670.948 701.5 669.5C699.9 667.9 698.415 665.77 697.873 664.905C698.082 664.938 698.291 664.97 698.5 665C702 665.5 777.5 666 786.5 666C795.5 666 821.5 665 828 664.5C829.426 664.39 831.044 664.233 832.722 664.069C838.697 663.486 845.439 662.829 847 664C849 665.5 853.5 675 854 676.5C854.5 678 852 678 850.5 677.5L847.5 676.5C848 677.167 848.7 678.4 847.5 678C846 677.5 844 677.5 840.5 677.5C837 677.5 833.5 678 831 678.5C828.5 679 823 679 821.5 679C820.75 679 817.375 679.75 814 680.5C810.625 681.25 807.25 682 806.5 682C805 682 798.5 683.5 794 685.5C792.211 686.295 790.186 687.09 788.081 687.916C784.889 689.169 781.513 690.494 778.5 692C776.153 693.173 773.256 694.016 770.428 694.839C767.231 695.769 764.123 696.673 762 698C759.58 699.513 757.709 700.11 756.276 700.567C755.341 700.866 754.592 701.105 754 701.5C753.342 701.938 752.781 702.569 752.273 703.139C751.623 703.869 751.062 704.5 750.5 704.5C750.167 704.5 749.944 704.444 749.722 704.389C749.278 704.278 748.833 704.167 747.5 704.5C745.5 705 743 706.5 741.5 707.5C740 708.5 733.5 711.5 732 712C730.5 712.5 726 713.5 724 713.5ZM571.5 688.5C571.5 689.7 569.833 690 569 690C569.333 690.167 570.5 690.7 572.5 691.5C574.5 692.3 576.333 694.167 577 695C577 694.021 576.148 693.042 575.418 692.203C575.029 691.755 574.674 691.347 574.5 691C574.1 690.2 575.667 690 576.5 690C575.833 690 574.3 689.9 573.5 689.5C572.7 689.1 571.167 685 570.5 683C570.833 684.333 571.5 687.3 571.5 688.5ZM568.5 665C569.5 666.5 572.1 669.6 574.5 670C576.709 670.368 581.086 670.194 584.039 670.077C585.097 670.035 585.972 670 586.5 670C588.1 670 587.167 667 586.5 665.5C587.167 666.667 588.8 669.1 590 669.5C591.5 670 597.5 670 599 670C600.5 670 605.5 670 607 669.5C608.5 669 608.5 666 606.5 665C607.667 665.167 610.1 666.2 610.5 669C610.794 671.059 613.684 670.868 616.726 670.668C618.855 670.528 621.059 670.382 622.5 671C625.3 672.2 625 674.833 624.5 676C624.333 674.833 623.4 672.4 621 672C618 671.5 612.5 671.5 609.5 671.5C607.598 671.5 603.486 671.299 600.475 671.152C598.737 671.067 597.366 671 597 671C596.2 671 596 673.667 596 675C595.667 673.667 594.8 671 594 671C593.652 671 592.575 671.061 591.172 671.14C588.548 671.288 584.781 671.5 582.5 671.5C581.159 671.5 578.936 671.353 576.621 671.2C572.894 670.954 568.925 670.692 568 671C568.833 670.667 570.8 670 572 670C570.833 668.833 568.5 666.2 568.5 665ZM591.5 690.5C587.5 690.9 585.833 691.333 585.5 691.5C588.5 690.5 600 691 601 692C601.8 692.8 605 699.667 606.5 703C606.358 702.389 605.976 701.357 605.528 700.147C604.51 697.4 603.153 693.736 603.5 692C603.925 689.875 609.048 690.279 611.188 690.448C611.566 690.478 611.85 690.5 612 690.5C612.209 690.5 612.725 690.478 613.433 690.448C616.107 690.335 621.523 690.105 623.5 690.5C625.583 690.917 627.667 696.194 628.014 697.074C628.046 697.155 628.064 697.198 628.064 697.198L628.058 697.177L628.04 697.12C628.03 697.09 628.017 697.05 628 697C627.5 695.5 626.5 692 626.5 690.5C626.5 689.3 628.833 688 630 687.5C629.333 687.5 627.6 687.6 626 688C624.8 688.3 623.96 688.24 622.616 688.144C621.72 688.08 620.6 688 619 688C615 688 607 688.5 605.5 689C604 689.5 601 688 600 686C599.2 684.4 597 679.667 596 677.5C596.422 680.032 597.912 684.344 598.668 686.53C598.807 686.934 598.922 687.266 599 687.5C599.5 689 596.5 690 591.5 690.5ZM623 670.5C623.667 670.5 625 670.3 625 669.5C625 668.7 625.333 666.5 625.5 665.5C625.5 666.5 625.8 668.7 627 669.5C628.5 670.5 643 671 644.5 670C645.7 669.2 645.333 667 645 666C645.333 666.667 646 668.3 646 669.5C646.833 669.667 648.7 669.9 649.5 669.5C650.5 669 652.5 670 653 671.5C653.4 672.7 654.167 677.333 654.5 679.5C653.9 675.844 652.445 671.95 651.5 671.5C648.494 670.069 648.247 671.237 648.5 672L653.5 679.5C651.667 677 647.7 671.9 646.5 671.5C645.551 671.184 643.8 671.268 641.628 671.372C640.369 671.433 638.968 671.5 637.5 671.5C633.5 671.5 626.5 671.5 623 670.5ZM622.5 712C622.833 712.5 623.9 713.5 625.5 713.5C626.444 713.5 627.946 713.166 629.531 712.813C631.303 712.418 633.18 712 634.5 712C637 712 640 712 641.5 714C641.667 713.5 641.8 712.2 641 711C640 709.5 638 709 635.5 709C634.18 709 631.189 709.836 628.364 710.625C625.837 711.331 623.444 712 622.5 712ZM617.5 714.5C617.1 714.5 616.333 713.5 616 713C617 712.667 619.4 712.1 621 712.5C623 713 623.79 714.155 623.5 714.155C623.374 714.155 622.33 714.219 621.144 714.293L621.142 714.293C619.584 714.389 617.784 714.5 617.5 714.5ZM645.5 709.5C646.667 709.5 649.5 709.4 651.5 709C651.998 708.9 652.535 708.761 653.088 708.618C655.314 708.042 657.799 707.398 659 709C659.333 708.333 660.1 707 660.5 707L659.5 706C658.7 705.2 657.833 703 657.5 702C657.5 703.5 657.1 706.6 655.5 707C654.5 707.25 653.5 707.375 652.5 707.5C651.5 707.625 650.5 707.75 649.5 708C647.9 708.4 646.167 709.167 645.5 709.5ZM646.5 726L642.5 716.5C643.3 716.1 642.833 713.875 642.5 712.813C642.833 713.375 643.6 715.1 644 717.5C644.4 719.9 645.833 724.167 646.5 726ZM631 689C631.5 689.167 632.7 690 633.5 692C633.653 692.382 633.794 692.741 633.925 693.075C634.653 694.924 635.076 696 635.5 696C635.75 696 636.375 695.75 637 695.5C637.625 695.25 638.25 695 638.5 695C638.544 695 638.595 694.996 638.652 694.992C639.258 694.947 640.587 694.848 641.5 698.5C642.3 701.7 643.5 703.833 644 704.5C643.833 702.934 643.4 699.542 643 698.5C642.699 697.717 641.856 696.429 641.123 695.309C640.637 694.567 640.199 693.899 640 693.5C639.6 692.7 639.5 689.833 639.5 688.5C639.333 689.5 638.7 691.5 637.5 691.5C636.643 691.5 635.786 690.847 634.929 690.194C634.286 689.704 633.643 689.214 633 689C631.8 688.6 631.167 688.833 631 689ZM651.5 687.5C649.5 687.9 646 687.667 644.5 687.5C647.465 687.5 649.209 686.889 650.456 686.453C651.733 686.006 652.488 685.741 653.5 686.5C655.5 688 656.5 690.5 657 694C657.4 696.8 657.5 699.833 657.5 701C657 698 654 687 651.5 687.5ZM657.5 675.5C659 678.167 662.1 683.7 662.5 684.5C662.9 685.3 657.667 685.833 655 686C656.5 686.167 660.3 686.4 663.5 686C667.5 685.5 670.5 686.5 671.5 687.5C671.5 687.167 671.3 686.4 670.5 686C671.833 686 674.8 685.9 676 685.5C676.75 685.25 678.75 685 680.75 684.75C682.75 684.5 684.75 684.25 685.5 684C687 683.5 693 683.5 695 683.5C694.971 683.5 694.877 683.479 694.724 683.445C693.813 683.243 690.781 682.572 686.5 683C683.167 683.333 681.167 683.667 679.167 684C678.167 684.167 677.167 684.333 676 684.5C672.5 685 665.5 685.5 664 684C662.8 682.8 660.833 676.833 660 674C660.333 675.167 660.8 677.4 660 677C659.2 676.6 656 671.5 654.5 669L657.5 675.5ZM666.5 671C663.3 671.4 661.167 670.5 660.5 670C661.167 669.833 663 669.5 665 669.5H676C677.6 669.5 678.667 670.167 679 670.5C676.5 670.5 670.5 670.5 666.5 671ZM666 711C666.5 709.833 668.1 707.3 670.5 706.5C673.5 705.5 682 703.5 684.5 708C684.167 706.833 684.3 704.2 687.5 703C688.686 702.555 689.741 702.11 690.703 701.704L690.704 701.704C692.984 700.742 694.742 700 696.5 700C698.5 700 701.333 700.667 702.5 701C700.5 699.667 696.2 697 695 697C694.317 697 692.91 697.828 691.296 698.778C689.363 699.916 687.135 701.228 685.5 701.5C684 701.75 681.75 702.25 679.5 702.75C677.25 703.25 675 703.75 673.5 704C670.5 704.5 668 705 665 706C662.99 706.67 663.674 707.565 664.645 708.835C665.123 709.46 665.67 710.175 666 711Z" fill="#D9A068"/>
<path d="M418.5 772.5C406.9 769.7 304.667 769 255 769C255 775.833 257 794.8 265 816C275 842.5 342 853 337.5 844C333 835 332.5 824.5 337.5 822.5C342.5 820.5 354.5 822.5 358 820C361.5 817.5 338.5 808 345.5 807.5C352.5 807 351 807.5 370.5 806.5C390 805.5 344.5 800.5 354.5 801C364.5 801.5 398 796.5 376 796C354 795.5 343 789.5 359 789.5C375 789.5 386 783 378.5 784C371 785 333 779.5 354.5 778C376 776.5 433 776 418.5 772.5Z" fill="#F3DC94"/>
<path d="M476.5 836C464.9 836 443 837 433.5 837.5C414.5 839 429.5 839.5 446 841.5C462.5 843.5 463.5 841.5 457 843.5C450.5 845.5 485 844.5 493.5 845C502 845.5 504 846.5 514.5 846C525 845.5 494.5 840.5 504 841.5C513.5 842.5 527.5 843 526 840.5C524.5 838 491 836 476.5 836Z" fill="#F3DC94"/>
<path d="M696.5 850.5C681.3 856.5 709.5 858.667 725.5 859C758 845 813 800 783.5 797C754 794 759 805 768 805.5C777 806 771 820 759 821C747 822 723 826 725.5 831C728 836 736.5 842 730.5 843.5C724.5 845 715.5 843 696.5 850.5Z" fill="#F3DC94"/>
<circle cx="401" cy="877" r="29" fill="#E5C17E"/>
</g>
<g style="mix-blend-mode:multiply" opacity="0.57">
<rect x="-378" y="-57" width="1793" height="1194"/>
</g>
</g>
<defs>
<clipPath id="clip0">
<rect width="1080" height="1080" fill="white"/>
</clipPath>
</defs>
</svg>
